<svg width="141" height="49" viewBox="0 0 141 49" fill="none" xmlns="http://www.w3.org/2000/svg">
<path d="M8.99145 48.1303C8.62965 48.1303 8.27658 48.1254 7.91762 48.1169C7.17399 48.1066 6.4321 48.0382 5.69803 47.9122C5.01355 47.7876 4.35048 47.5559 3.73067 47.2247C3.11655 46.8962 2.55643 46.4655 2.07175 45.949C1.58006 45.4386 1.17071 44.8467 0.859908 44.1966C0.545686 43.5424 0.328225 42.841 0.215102 42.1171C0.092938 41.3393 0.0268425 40.5527 0.0173849 39.7643C0.00985619 39.4997 0 38.6185 0 38.6185V9.63109C0 9.63109 0.0104974 8.76349 0.0174443 8.50859C0.0264998 7.72141 0.0922111 6.9361 0.214009 6.15945C0.327342 5.43356 0.544971 4.73022 0.859362 4.07379C1.16902 3.42418 1.5761 2.83179 2.06483 2.31959C2.55301 1.80252 3.11493 1.36958 3.73009 1.03656C4.34847 0.70639 5.01029 0.476302 5.69339 0.354003C6.42987 0.22672 7.17433 0.157904 7.92054 0.148134L8.99203 0.132812H131.029L132.113 0.148749C132.852 0.158034 133.59 0.226235 134.32 0.352773C135.01 0.476606 135.678 0.7083 136.304 1.04023C137.536 1.71138 138.539 2.77319 139.172 4.07685C139.481 4.72875 139.695 5.42635 139.807 6.14598C139.93 6.929 139.999 7.72048 140.014 8.51412C140.017 8.86949 140.017 9.25121 140.017 9.63109C140.026 10.1017 140.026 10.5495 140.026 11.0011V37.2632C140.026 37.7191 140.026 38.1639 140.017 38.6124C140.017 39.0204 140.017 39.3943 140.012 39.779C139.998 40.5585 139.931 41.3358 139.809 42.1048C139.699 42.834 139.482 43.5408 139.168 44.2004C138.855 44.8434 138.448 45.4302 137.962 45.9392C137.477 46.4585 136.916 46.8917 136.3 47.2223C135.677 47.5561 135.009 47.7887 134.32 47.9122C133.586 48.0389 132.844 48.1073 132.1 48.1169C131.752 48.1254 131.388 48.1303 131.034 48.1303L129.747 48.1328L8.99145 48.1303Z" fill="black"/>
<path d="M28.3691 24.5144C28.3819 23.4671 28.6451 22.4401 29.1343 21.5292C29.6235 20.6182 30.3227 19.8528 31.167 19.3043C30.6306 18.4947 29.9231 17.8284 29.1005 17.3584C28.278 16.8884 27.363 16.6276 26.4284 16.5967C24.4347 16.3755 22.5019 17.8576 21.4859 17.8576C20.4503 17.8576 18.8861 16.6187 17.2017 16.6553C16.1122 16.6925 15.0504 17.0274 14.1197 17.6273C13.189 18.2271 12.4212 19.0716 11.8912 20.0783C9.59499 24.2801 11.3077 30.4552 13.5073 33.8515C14.6077 35.5146 15.8939 37.3723 17.5768 37.3065C19.2236 37.2343 19.8386 36.1966 21.8265 36.1966C23.7959 36.1966 24.3729 37.3065 26.0899 37.2646C27.857 37.2343 28.9704 35.5941 30.0323 33.9152C30.8229 32.7302 31.4314 31.4205 31.835 30.0347C30.8084 29.5757 29.9323 28.8075 29.3159 27.8259C28.6996 26.8442 28.3703 25.6925 28.3691 24.5144Z" fill="white"/>
<path d="M25.1253 14.3606C26.0886 13.1382 26.5632 11.5669 26.4483 9.98047C24.9765 10.1439 23.6171 10.8874 22.6407 12.063C22.1634 12.6373 21.7978 13.3054 21.5648 14.0292C21.3319 14.7529 21.2361 15.5181 21.2831 16.281C22.0192 16.289 22.7475 16.1203 23.413 15.7877C24.0785 15.4551 24.664 14.9671 25.1253 14.3606Z" fill="white"/>
<path d="M49.1915 33.0973H43.5717L42.2221 37.3091H39.8418L45.1648 21.7266H47.6379L52.9608 37.3091H50.5399L49.1915 33.0973ZM44.1537 31.1538H48.6084L46.4124 24.3184H46.3509L44.1537 31.1538Z" fill="white"/>
<path d="M64.4555 31.6263C64.4555 35.1567 62.6676 37.425 59.9696 37.425C59.2862 37.4628 58.6065 37.2964 58.0083 36.9448C57.4102 36.5933 56.9178 36.0709 56.5875 35.4373H56.5365V41.0645H54.3301V25.9452H56.4658V27.8348H56.5064C56.8518 27.2043 57.3525 26.6845 57.9552 26.3309C58.5579 25.9772 59.24 25.8028 59.929 25.8263C62.6572 25.8263 64.4555 28.1056 64.4555 31.6263ZM62.1876 31.6263C62.1876 29.3262 61.063 27.814 59.347 27.814C57.6612 27.814 56.5272 29.358 56.5272 31.6263C56.5272 33.9154 57.6612 35.4484 59.347 35.4484C61.063 35.4484 62.1876 33.9472 62.1876 31.6263Z" fill="white"/>
<path d="M76.2856 31.6263C76.2856 35.1567 74.4977 37.425 71.7997 37.425C71.1162 37.4628 70.4365 37.2964 69.8384 36.9448C69.2403 36.5933 68.7479 36.0709 68.4176 35.4373H68.3666V41.0645H66.1602V25.9452H68.2958V27.8348H68.3364C68.6819 27.2043 69.1826 26.6845 69.7853 26.3309C70.3879 25.9772 71.0701 25.8028 71.7591 25.8263C74.4873 25.8263 76.2856 28.1056 76.2856 31.6263ZM74.0177 31.6263C74.0177 29.3261 72.893 27.814 71.1771 27.814C69.4913 27.814 68.3573 29.358 68.3573 31.6263C68.3573 33.9154 69.4913 35.4484 71.1771 35.4484C72.8931 35.4484 74.0177 33.9472 74.0177 31.6263H74.0177Z" fill="white"/>
<path d="M84.1043 32.9655C84.2678 34.5108 85.6881 35.5254 87.629 35.5254C89.4888 35.5254 90.8267 34.5108 90.8267 33.1174C90.8267 31.9079 90.0198 31.1837 88.109 30.6874L86.1983 30.2009C83.491 29.5098 82.2342 28.1716 82.2342 26.0001C82.2342 23.3116 84.451 21.4648 87.5989 21.4648C90.7143 21.4648 92.85 23.3116 92.9219 26.0001H90.6945C90.5612 24.4451 89.345 23.5064 87.5675 23.5064C85.7901 23.5064 84.5739 24.4561 84.5739 25.8384C84.5739 26.9401 85.3507 27.5883 87.251 28.0846L88.8754 28.5061C91.9004 29.2622 93.1572 30.5465 93.1572 32.8257C93.1572 35.741 90.9601 37.5669 87.4655 37.5669C84.1959 37.5669 81.9883 35.7839 81.8457 32.9654L84.1043 32.9655Z" fill="white"/>
<path d="M97.9223 23.2617V25.9503H99.9664V27.797H97.9223V34.0602C97.9223 35.0332 98.3316 35.4866 99.2302 35.4866C99.4729 35.4821 99.7151 35.4641 99.956 35.4326V37.2683C99.552 37.3481 99.1414 37.3842 98.7305 37.3761C96.5542 37.3761 95.7055 36.5122 95.7055 34.3089V27.797H94.1426V25.9503H95.7055V23.2617H97.9223Z" fill="white"/>
<path d="M101.148 31.6255C101.148 28.0509 103.14 25.8047 106.246 25.8047C109.363 25.8047 111.346 28.0508 111.346 31.6255C111.346 35.2098 109.373 37.4462 106.246 37.4462C103.121 37.4462 101.148 35.2098 101.148 31.6255ZM109.098 31.6255C109.098 29.1734 108.034 27.7262 106.246 27.7262C104.459 27.7262 103.397 29.1844 103.397 31.6255C103.397 34.0873 104.459 35.5235 106.246 35.5235C108.034 35.5235 109.097 34.0873 109.097 31.6255H109.098Z" fill="white"/>
<path d="M113.162 25.9451H115.266V27.8788H115.318C115.46 27.2748 115.795 26.7411 116.266 26.3673C116.736 25.9935 117.315 25.8024 117.903 25.8262C118.157 25.8253 118.411 25.8544 118.659 25.9132V28.0945C118.338 27.9908 118.003 27.9432 117.668 27.9535C117.347 27.9398 117.028 27.9995 116.731 28.1286C116.434 28.2577 116.168 28.4532 115.949 28.7015C115.731 28.9498 115.566 29.2451 115.466 29.5672C115.365 29.8893 115.332 30.2305 115.369 30.5674V37.306H113.162L113.162 25.9451Z" fill="white"/>
<path d="M128.833 33.9685C128.536 36.0309 126.636 37.4462 124.205 37.4462C121.078 37.4462 119.137 35.2319 119.137 31.6794C119.137 28.1158 121.088 25.8047 124.112 25.8047C127.086 25.8047 128.956 27.9639 128.956 31.4086V32.2075H121.364V32.3485C121.329 32.7666 121.378 33.1878 121.509 33.5841C121.64 33.9804 121.849 34.3428 122.123 34.6472C122.396 34.9515 122.728 35.1909 123.096 35.3494C123.463 35.5079 123.859 35.5819 124.256 35.5664C124.777 35.6181 125.3 35.4904 125.748 35.2025C126.195 34.9146 126.542 34.4818 126.738 33.9685L128.833 33.9685ZM121.374 30.5777H126.748C126.768 30.2018 126.714 29.8256 126.59 29.4727C126.466 29.1198 126.274 28.7979 126.026 28.5272C125.779 28.2564 125.481 28.0427 125.151 27.8993C124.822 27.756 124.468 27.6862 124.112 27.6943C123.753 27.692 123.396 27.765 123.064 27.909C122.731 28.053 122.429 28.2651 122.175 28.5332C121.92 28.8013 121.718 29.1199 121.581 29.4709C121.444 29.8218 121.374 30.198 121.374 30.5777V30.5777Z" fill="white"/>
<path d="M43.8792 9.99678C44.3418 9.96169 44.8059 10.0356 45.2382 10.213C45.6705 10.3905 46.0602 10.6672 46.3791 11.0231C46.6979 11.379 46.9381 11.8052 47.0823 12.2711C47.2264 12.737 47.2709 13.2309 47.2126 13.7172C47.2126 16.1092 45.9894 17.4842 43.8792 17.4842H41.3203V9.99678H43.8792ZM42.4206 16.4253H43.7563C44.0868 16.4462 44.4176 16.3889 44.7246 16.2576C45.0315 16.1264 45.3069 15.9244 45.5307 15.6664C45.7545 15.4085 45.9211 15.101 46.0182 14.7665C46.1154 14.4319 46.1408 14.0787 46.0925 13.7324C46.1373 13.3876 46.1094 13.0365 46.0107 12.7044C45.912 12.3723 45.745 12.0673 45.5217 11.8114C45.2985 11.5555 45.0244 11.355 44.7192 11.2242C44.4139 11.0934 44.0851 11.0356 43.7563 11.0549H42.4206V16.4253Z" fill="white"/>
<path d="M48.4553 14.6544C48.4217 14.2831 48.4619 13.9084 48.5733 13.5545C48.6846 13.2005 48.8648 12.8751 49.1021 12.5991C49.3395 12.323 49.6288 12.1025 49.9515 11.9515C50.2742 11.8006 50.6231 11.7227 50.976 11.7227C51.3289 11.7227 51.6779 11.8006 52.0006 11.9515C52.3233 12.1025 52.6125 12.323 52.8499 12.5991C53.0872 12.8751 53.2674 13.2005 53.3788 13.5545C53.4902 13.9084 53.5303 14.2831 53.4967 14.6544C53.531 15.0261 53.4913 15.4013 53.3802 15.7558C53.2691 16.1104 53.089 16.4364 52.8516 16.713C52.6142 16.9896 52.3247 17.2106 52.0017 17.3618C51.6787 17.5131 51.3293 17.5912 50.976 17.5912C50.6227 17.5912 50.2733 17.5131 49.9503 17.3618C49.6273 17.2106 49.3378 16.9896 49.1004 16.713C48.863 16.4364 48.6829 16.1104 48.5718 15.7558C48.4607 15.4013 48.421 15.0261 48.4553 14.6544ZM52.4117 14.6544C52.4117 13.4296 51.8912 12.7134 50.9777 12.7134C50.0608 12.7134 49.545 13.4296 49.545 14.6544C49.545 15.8891 50.0608 16.5998 50.9777 16.5998C51.8912 16.5998 52.4117 15.8841 52.4117 14.6544H52.4117Z" fill="white"/>
<path d="M60.1988 17.4786H59.1043L57.9993 13.317H57.9159L56.8155 17.4786H55.7315L54.2578 11.8281H55.328L56.2857 16.1397H56.3645L57.4637 11.8281H58.4759L59.575 16.1397H59.6585L60.6115 11.8281H61.6666L60.1988 17.4786Z" fill="white"/>
<path d="M62.9082 11.8334H63.9237V12.731H64.0025C64.1362 12.4086 64.3618 12.1384 64.6477 11.9579C64.9336 11.7774 65.2657 11.6958 65.5976 11.7243C65.8577 11.7036 66.1188 11.7451 66.3617 11.8456C66.6046 11.9461 66.8229 12.1031 67.0006 12.3049C67.1783 12.5068 67.3107 12.7483 67.3881 13.0116C67.4655 13.2748 67.4859 13.5532 67.4477 13.8259V17.4838H66.3928V14.1059C66.3928 13.1979 66.0196 12.7463 65.2394 12.7463C65.0628 12.7376 64.8865 12.7694 64.7227 12.8395C64.5588 12.9095 64.4112 13.0162 64.2899 13.1522C64.1687 13.2882 64.0767 13.4503 64.0203 13.6274C63.9639 13.8045 63.9444 13.9924 63.9631 14.1782V17.4838H62.9082L62.9082 11.8334Z" fill="white"/>
<path d="M69.127 9.625H70.1818V17.4812H69.127V9.625Z" fill="white"/>
<path d="M71.6506 14.6545C71.617 14.2832 71.6572 13.9085 71.7686 13.5545C71.88 13.2006 72.0602 12.8751 72.2976 12.5991C72.5349 12.323 72.8243 12.1025 73.147 11.9515C73.4697 11.8006 73.8187 11.7227 74.1716 11.7227C74.5245 11.7227 74.8735 11.8006 75.1962 11.9515C75.5189 12.1025 75.8082 12.323 76.0456 12.5991C76.283 12.8751 76.4631 13.2006 76.5745 13.5545C76.686 13.9085 76.7262 14.2832 76.6926 14.6545C76.7268 15.0263 76.6871 15.4014 76.5759 15.756C76.4648 16.1105 76.2847 16.4365 76.0473 16.7131C75.8099 16.9897 75.5203 17.2107 75.1973 17.3619C74.8743 17.5132 74.5249 17.5913 74.1716 17.5913C73.8183 17.5913 73.4689 17.5132 73.1459 17.3619C72.8228 17.2107 72.5333 16.9897 72.2959 16.7131C72.0584 16.4365 71.8784 16.1105 71.7672 15.756C71.6561 15.4014 71.6164 15.0263 71.6506 14.6545ZM75.607 14.6545C75.607 13.4297 75.0865 12.7135 74.173 12.7135C73.2561 12.7135 72.7403 13.4297 72.7403 14.6545C72.7403 15.8892 73.2561 16.5999 74.173 16.5999C75.0865 16.5999 75.607 15.8842 75.607 14.6545H75.607Z" fill="white"/>
<path d="M77.8027 15.8842C77.8027 14.8671 78.5191 14.2807 79.7908 14.1974L81.2387 14.1092V13.6215C81.2387 13.0247 80.8654 12.6877 80.1444 12.6877C79.5555 12.6877 79.1474 12.9162 79.0303 13.3157H78.0091C78.1169 12.3452 78.9805 11.7227 80.193 11.7227C81.5331 11.7227 82.2889 12.4279 82.2889 13.6215V17.4822H81.2734V16.6881H81.19C81.0206 16.9729 80.7827 17.2051 80.5006 17.361C80.2185 17.5169 79.9024 17.5908 79.5845 17.5753C79.3601 17.5999 79.1333 17.5746 78.9187 17.501C78.7041 17.4273 78.5065 17.3069 78.3387 17.1476C78.1708 16.9883 78.0364 16.7935 77.9441 16.5759C77.8518 16.3583 77.8036 16.1227 77.8027 15.8842ZM81.2387 15.4014V14.929L79.9334 15.0172C79.1973 15.0693 78.8634 15.334 78.8634 15.8321C78.8634 16.3407 79.2807 16.6366 79.8546 16.6366C80.0227 16.6546 80.1926 16.6366 80.354 16.5838C80.5155 16.531 80.6652 16.4444 80.7943 16.3292C80.9235 16.2139 81.0294 16.0724 81.1057 15.913C81.182 15.7536 81.2272 15.5796 81.2387 15.4014Z" fill="white"/>
<path d="M83.6758 14.6536C83.6758 12.8681 84.544 11.737 85.8945 11.737C86.2286 11.7208 86.5601 11.8053 86.8504 11.9809C87.1406 12.1564 87.3776 12.4157 87.5337 12.7284H87.6125V9.625H88.6674V17.4812H87.6566V16.5885H87.5731C87.405 16.899 87.1597 17.1551 86.8639 17.3288C86.568 17.5026 86.2328 17.5875 85.8945 17.5743C84.5348 17.5744 83.6758 16.4433 83.6758 14.6536ZM84.7655 14.6536C84.7655 15.852 85.2999 16.5732 86.1937 16.5732C87.0827 16.5732 87.6322 15.8416 87.6322 14.6585C87.6322 13.4808 87.077 12.7388 86.1937 12.7388C85.3057 12.7388 84.7654 13.4649 84.7654 14.6536H84.7655Z" fill="white"/>
<path d="M93.0393 14.6544C93.0057 14.2831 93.0458 13.9084 93.1572 13.5545C93.2686 13.2005 93.4488 12.8751 93.6861 12.5991C93.9235 12.323 94.2127 12.1025 94.5354 11.9515C94.8581 11.8006 95.2071 11.7227 95.56 11.7227C95.9129 11.7227 96.2618 11.8006 96.5845 11.9515C96.9072 12.1025 97.1965 12.323 97.4339 12.5991C97.6712 12.8751 97.8513 13.2005 97.9627 13.5545C98.0741 13.9084 98.1143 14.2831 98.0807 14.6544C98.115 15.0261 98.0752 15.4013 97.9642 15.7558C97.8531 16.1104 97.673 16.4364 97.4356 16.713C97.1982 16.9896 96.9087 17.2106 96.5857 17.3618C96.2627 17.5131 95.9133 17.5912 95.56 17.5912C95.2067 17.5912 94.8573 17.5131 94.5343 17.3618C94.2113 17.2106 93.9218 16.9896 93.6844 16.713C93.447 16.4364 93.2669 16.1104 93.1558 15.7558C93.0447 15.4013 93.005 15.0261 93.0393 14.6544ZM96.9957 14.6544C96.9957 13.4296 96.4752 12.7134 95.5617 12.7134C94.6448 12.7134 94.129 13.4296 94.129 14.6544C94.129 15.8891 94.6448 16.5998 95.5617 16.5998C96.4752 16.5998 96.9957 15.8841 96.9957 14.6544Z" fill="white"/>
<path d="M99.498 11.8334H100.514V12.731H100.592C100.726 12.4086 100.952 12.1384 101.238 11.9579C101.523 11.7774 101.856 11.6958 102.187 11.7243C102.448 11.7036 102.709 11.7451 102.952 11.8456C103.194 11.9461 103.413 12.1031 103.59 12.3049C103.768 12.5068 103.901 12.7483 103.978 13.0116C104.055 13.2748 104.076 13.5532 104.038 13.8259V17.4838H102.983V14.1059C102.983 13.1979 102.609 12.7463 101.829 12.7463C101.653 12.7376 101.476 12.7694 101.313 12.8395C101.149 12.9095 101.001 13.0162 100.88 13.1522C100.759 13.2882 100.667 13.4503 100.61 13.6274C100.554 13.8045 100.534 13.9924 100.553 14.1782V17.4838H99.498V11.8334Z" fill="white"/>
<path d="M109.994 10.4219V11.8544H111.153V12.7937H109.994V15.6992C109.994 16.2911 110.225 16.5502 110.75 16.5502C110.885 16.5498 111.019 16.5412 111.153 16.5245V17.4534C110.963 17.4892 110.771 17.5082 110.579 17.5103C109.406 17.5103 108.938 17.0741 108.938 15.9847V12.7936H108.09V11.8543H108.938V10.4219H109.994Z" fill="white"/>
<path d="M112.598 9.625H113.643V12.7388H113.727C113.867 12.4134 114.099 12.1416 114.39 11.9605C114.682 11.7794 115.019 11.6977 115.357 11.7266C115.615 11.7117 115.874 11.7574 116.114 11.8603C116.354 11.9633 116.57 12.121 116.746 12.3222C116.921 12.5234 117.053 12.7631 117.131 13.0243C117.209 13.2855 117.232 13.5616 117.197 13.8331V17.4812H116.141V14.1082C116.141 13.2057 115.744 12.7486 114.998 12.7486C114.817 12.7329 114.635 12.7592 114.464 12.8258C114.293 12.8924 114.139 12.9976 114.01 13.134C113.882 13.2705 113.784 13.4349 113.722 13.6157C113.66 13.7966 113.636 13.9896 113.653 14.1811V17.4812H112.598L112.598 9.625Z" fill="white"/>
<path d="M123.343 15.9566C123.2 16.473 122.889 16.9197 122.466 17.2185C122.043 17.5174 121.533 17.6493 121.027 17.5913C120.675 17.6011 120.325 17.5298 120.002 17.3824C119.678 17.2349 119.389 17.0148 119.154 16.7373C118.919 16.4598 118.744 16.1316 118.641 15.7754C118.538 15.4193 118.51 15.0437 118.558 14.6748C118.511 14.3048 118.54 13.9284 118.643 13.5712C118.745 13.214 118.919 12.8842 119.153 12.6043C119.387 12.3244 119.675 12.1008 119.997 11.9487C120.32 11.7966 120.669 11.7196 121.022 11.7228C122.51 11.7228 123.407 12.7969 123.407 14.5712V14.9603H119.633V15.0228C119.616 15.2302 119.641 15.4389 119.705 15.6356C119.769 15.8323 119.872 16.0126 120.006 16.165C120.14 16.3174 120.302 16.4386 120.483 16.5206C120.664 16.6027 120.859 16.6439 121.056 16.6416C121.308 16.6736 121.564 16.6256 121.79 16.5036C122.017 16.3816 122.204 16.1912 122.328 15.9566L123.343 15.9566ZM119.633 14.1356H122.332C122.346 13.946 122.321 13.7555 122.261 13.5764C122.2 13.3973 122.105 13.2336 121.981 13.0957C121.857 12.9579 121.707 12.8489 121.541 12.7759C121.375 12.7029 121.196 12.6675 121.017 12.6718C120.834 12.6694 120.653 12.7056 120.484 12.7783C120.315 12.8511 120.162 12.9588 120.033 13.0952C119.904 13.2316 119.802 13.394 119.733 13.5726C119.664 13.7513 119.63 13.9427 119.633 14.1356H119.633Z" fill="white"/>
</svg>
