<svg width="24" height="24" viewBox="0 0 24 24" fill="none" xmlns="http://www.w3.org/2000/svg">
<path d="M7.44906 23.5778H7.41906L7.38906 23.5478C6.81906 23.2778 6.33906 22.8878 5.91906 22.4278C5.61906 22.1878 5.33906 21.9178 5.09906 21.6078V21.5878L5.07906 21.5678C4.88906 21.3178 4.71907 21.0578 4.58907 20.8078C4.47907 20.5978 4.28906 20.1978 4.28906 19.7178C4.28906 19.1378 4.49906 18.5678 4.93906 18.1178L10.9591 11.9178L5.00906 5.31781C4.62906 4.90781 4.39906 4.38781 4.39906 3.78781C4.39906 3.31781 4.56906 2.92781 4.69906 2.68781C4.82906 2.43781 4.99907 2.18781 5.17907 1.95781C5.17907 1.95781 5.17906 1.94781 5.18906 1.93781C5.18906 1.93781 5.19906 1.91781 5.20906 1.90781C5.66906 1.28781 6.26906 0.817814 6.96906 0.497814C6.96906 0.497814 6.98906 0.497812 6.98906 0.487812C7.48906 0.247812 8.11906 0.0078125 8.72906 0.0078125C9.33907 0.0078125 10.0091 0.217811 10.4991 0.787811L10.5091 0.797813L10.6591 0.977814C10.7891 1.07781 10.9191 1.18781 11.0291 1.31781L11.0391 1.32781L18.9991 10.8378C19.3891 11.2678 19.7091 11.8378 19.7091 12.5578C19.7091 13.4078 19.2191 14.0578 18.8291 14.4578L10.8491 23.2978C10.3891 23.7578 9.79907 23.9978 9.15907 23.9978C8.56907 23.9978 7.95906 23.7778 7.44906 23.5678V23.5778Z" fill="#191919"/>
<path d="M9.31938 1.81813C9.17938 1.65813 8.98938 1.57812 8.73938 1.57812C8.48938 1.57812 8.11938 1.68813 7.63938 1.91813C7.13938 2.14813 6.73938 2.46812 6.43938 2.87812C6.11938 3.28812 5.95938 3.59812 5.95938 3.80812C5.95938 3.98812 6.02938 4.14812 6.16938 4.28812L13.0994 11.9781L6.06938 19.2181C5.92938 19.3581 5.85938 19.5281 5.85938 19.7281C5.85938 19.9081 6.01938 20.2181 6.33938 20.6581C6.65938 21.0681 7.05938 21.3881 7.53938 21.6181C8.01938 21.8281 8.38938 21.9281 8.63938 21.9281C8.86938 21.9281 9.05938 21.8481 9.21938 21.6881L17.1494 12.9081C17.4694 12.5881 17.6294 12.2981 17.6294 12.0481C17.6294 11.7981 17.5194 11.5581 17.2894 11.3281L9.32938 1.81813H9.31938Z" fill="#F5F5F5"/>
</svg>
