<svg width="35" height="20" viewBox="0 0 35 20" fill="none" xmlns="http://www.w3.org/2000/svg">
<path d="M28.9393 1.82544C26.7755 1.07273 24.4551 0.518171 22.0289 0.200551C21.9847 0.194421 21.9406 0.20974 21.9178 0.240379C21.6194 0.642764 21.2889 1.16771 21.0574 1.58031C18.4479 1.28415 15.8518 1.28415 13.2959 1.58031C13.0644 1.15854 12.7218 0.642764 12.422 0.240379C12.3993 0.210763 12.3551 0.195443 12.311 0.200551C9.88616 0.517156 7.56575 1.07172 5.40055 1.82544C5.38181 1.83156 5.36574 1.84179 5.35508 1.85506C0.953746 6.84001 -0.251963 11.7024 0.339517 16.5046C0.342194 16.5281 0.35959 16.5506 0.383678 16.5648C3.28755 18.1815 6.10045 19.163 8.86111 19.8136C8.90529 19.8238 8.9521 19.8116 8.98022 19.784C9.63326 19.1079 10.2154 18.395 10.7145 17.6454C10.7439 17.6015 10.7158 17.5494 10.6556 17.532C9.73228 17.2665 8.85307 16.9427 8.00734 16.5751C7.94044 16.5454 7.93509 16.4729 7.99663 16.4382C8.1746 16.3371 8.35262 16.2319 8.52256 16.1257C8.55331 16.1063 8.59615 16.1022 8.6323 16.1144C14.1884 18.0376 20.2036 18.0376 25.6942 16.1144C25.7303 16.1012 25.7732 16.1053 25.8053 16.1247C25.9753 16.2309 26.1532 16.3371 26.3325 16.4382C26.3941 16.4729 26.3901 16.5454 26.3232 16.5751C25.4774 16.9499 24.5982 17.2665 23.6735 17.531C23.6133 17.5484 23.5866 17.6015 23.616 17.6454C24.1258 18.394 24.708 19.1068 25.3489 19.7829C25.3757 19.8116 25.4239 19.8238 25.4681 19.8136C28.2421 19.163 31.055 18.1815 33.9589 16.5648C33.9843 16.5506 34.0004 16.5291 34.003 16.5056C34.7109 10.9538 32.8174 6.13124 28.9835 1.85607C28.9741 1.84179 28.9581 1.83156 28.9393 1.82544ZM11.5442 13.5806C9.87143 13.5806 8.49311 12.4163 8.49311 10.9865C8.49311 9.55667 9.8447 8.39241 11.5442 8.39241C13.2571 8.39241 14.622 9.56689 14.5953 10.9865C14.5953 12.4163 13.2437 13.5806 11.5442 13.5806ZM22.8251 13.5806C21.1524 13.5806 19.7741 12.4163 19.7741 10.9865C19.7741 9.55667 21.1256 8.39241 22.8251 8.39241C24.538 8.39241 25.903 9.56689 25.8762 10.9865C25.8762 12.4163 24.538 13.5806 22.8251 13.5806Z" fill="#191919"/>
</svg>
