<svg width="153" height="48" viewBox="0 0 153 48" fill="none" xmlns="http://www.w3.org/2000/svg">
<path d="M147.095 0H5.65751C2.53295 0 0 2.68629 0 6V42C0 45.3137 2.53295 48 5.65751 48H147.095C150.22 48 152.753 45.3137 152.753 42V6C152.753 2.68629 150.22 0 147.095 0Z" fill="black"/>
<path d="M53.741 12.2865C53.741 13.2945 53.4577 14.0985 52.891 14.6865C52.2564 15.3945 51.429 15.7545 50.3977 15.7545C49.3664 15.7545 48.573 15.3945 47.893 14.6745C47.213 13.9545 46.873 13.0545 46.873 11.9985C46.873 10.9425 47.213 10.0425 47.893 9.32247C48.573 8.60247 49.4117 8.23047 50.3977 8.23047C50.8964 8.23047 51.3724 8.32647 51.8144 8.50647C52.2564 8.69847 52.619 8.96247 52.9024 9.29847L52.279 9.95847C52.075 9.69447 51.803 9.47847 51.463 9.33447C51.1344 9.17847 50.7717 9.10647 50.3977 9.10647C49.661 9.10647 49.0264 9.38247 48.5164 9.92247C48.0064 10.4745 47.757 11.1585 47.757 11.9865C47.757 12.8145 48.0064 13.4985 48.5164 14.0505C49.0264 14.5905 49.6497 14.8665 50.3977 14.8665C51.0777 14.8665 51.633 14.6625 52.0864 14.2665C52.5397 13.8705 52.8004 13.3065 52.8684 12.6105H50.3977V11.7465H53.6957C53.7297 11.9385 53.741 12.1185 53.741 12.2865Z" fill="white" stroke="white" stroke-width="0.2" stroke-miterlimit="10"/>
<path d="M58.9686 8.39844V9.28644H55.8746V11.5664H58.6626V12.4304H55.8746V14.7104H58.9686V15.5984H55.002V8.39844H58.9686Z" fill="white" stroke="white" stroke-width="0.2" stroke-miterlimit="10"/>
<path d="M62.6478 9.28644V15.5984H61.7751V9.28644H59.8711V8.39844H64.5404V9.28644H62.6364H62.6478Z" fill="white" stroke="white" stroke-width="0.2" stroke-miterlimit="10"/>
<path d="M68.8063 15.5984H67.9336V8.39844H68.8063V15.5984Z" fill="white" stroke="white" stroke-width="0.2" stroke-miterlimit="10"/>
<path d="M72.681 9.28644V15.5984H71.8083V9.28644H69.9043V8.39844H74.5736V9.28644H72.6696H72.681Z" fill="white" stroke="white" stroke-width="0.2" stroke-miterlimit="10"/>
<path d="M84.42 11.9985C84.42 13.0665 84.08 13.9545 83.4113 14.6745C82.7313 15.3945 81.904 15.7545 80.918 15.7545C79.932 15.7545 79.1047 15.3945 78.4247 14.6745C77.756 13.9545 77.416 13.0665 77.416 11.9985C77.416 10.9305 77.756 10.0425 78.4247 9.32247C79.0933 8.60247 79.9207 8.23047 80.918 8.23047C81.9154 8.23047 82.7313 8.59047 83.4113 9.32247C84.08 10.0425 84.42 10.9305 84.42 11.9865V11.9985ZM78.3227 11.9985C78.3227 12.8265 78.572 13.5225 79.0594 14.0625C79.558 14.6025 80.1814 14.8785 80.918 14.8785C81.6547 14.8785 82.278 14.6025 82.7654 14.0625C83.264 13.5225 83.5134 12.8385 83.5134 11.9985C83.5134 11.1585 83.264 10.4745 82.7654 9.93447C82.2667 9.39447 81.6547 9.11847 80.918 9.11847C80.1814 9.11847 79.558 9.39447 79.0594 9.93447C78.5607 10.4745 78.3227 11.1705 78.3227 11.9985Z" fill="white" stroke="white" stroke-width="0.2" stroke-miterlimit="10"/>
<path d="M86.5191 15.5984H85.6465V8.39844H86.7118L90.0212 14.0024H90.0552L90.0212 12.6104V8.39844H90.8938V15.5984H89.9872L86.5305 9.73044H86.4965L86.5305 11.1224V15.6104L86.5191 15.5984Z" fill="white" stroke="white" stroke-width="0.2" stroke-miterlimit="10"/>
<path d="M77.2254 26.0973C74.5621 26.0973 72.3861 28.2453 72.3861 31.1973C72.3861 34.1493 74.5621 36.2973 77.2254 36.2973C79.8888 36.2973 82.0648 34.1373 82.0648 31.1973C82.0648 28.2573 79.8888 26.0973 77.2254 26.0973ZM77.2254 34.2933C75.7634 34.2933 74.5054 33.0213 74.5054 31.1973C74.5054 29.3733 75.7634 28.1013 77.2254 28.1013C78.6874 28.1013 79.9454 29.3613 79.9454 31.1973C79.9454 33.0333 78.6874 34.2933 77.2254 34.2933ZM66.6741 26.0973C64.0108 26.0973 61.8348 28.2453 61.8348 31.1973C61.8348 34.1493 64.0108 36.2973 66.6741 36.2973C69.3374 36.2973 71.5134 34.1373 71.5134 31.1973C71.5134 28.2573 69.3374 26.0973 66.6741 26.0973ZM66.6741 34.2933C65.2121 34.2933 63.9541 33.0213 63.9541 31.1973C63.9541 29.3733 65.2121 28.1013 66.6741 28.1013C68.1361 28.1013 69.3941 29.3613 69.3941 31.1973C69.3941 33.0333 68.1361 34.2933 66.6741 34.2933ZM54.1168 27.6573V29.8173H59.0128C58.8654 31.0293 58.4801 31.9293 57.9021 32.5413C57.1881 33.2973 56.0774 34.1253 54.1281 34.1253C51.1134 34.1253 48.7561 31.5573 48.7561 28.3653C48.7561 25.1733 51.1134 22.6053 54.1281 22.6053C55.7488 22.6053 56.9388 23.2773 57.8114 24.1533L59.2508 22.6293C58.0268 21.3933 56.4061 20.4453 54.1168 20.4453C49.9914 20.4453 46.5234 23.9973 46.5234 28.3773C46.5234 32.7573 49.9914 36.3093 54.1168 36.3093C56.3494 36.3093 58.0268 35.5413 59.3414 34.0893C60.6901 32.6613 61.1094 30.6453 61.1094 29.0253C61.1094 28.5213 61.0754 28.0533 60.9961 27.6693H54.1168V27.6573ZM105.468 29.3373C105.071 28.1973 103.847 26.0853 101.343 26.0853C98.8381 26.0853 96.7981 28.1493 96.7981 31.1853C96.7981 34.0413 98.8381 36.2853 101.581 36.2853C103.791 36.2853 105.071 34.8573 105.593 34.0293L103.949 32.8653C103.405 33.7173 102.657 34.2813 101.581 34.2813C100.504 34.2813 99.7334 33.7653 99.2461 32.7333L105.695 29.9133L105.479 29.3373H105.468ZM98.8948 31.0413C98.8381 29.0733 100.334 28.0653 101.411 28.0653C102.249 28.0653 102.963 28.5093 103.201 29.1453L98.8948 31.0413ZM93.6588 35.9853H95.7781V20.9853H93.6588V35.9853ZM90.1908 27.2253H90.1228C89.6468 26.6253 88.7401 26.0853 87.5841 26.0853C85.1701 26.0853 82.9601 28.3293 82.9601 31.2093C82.9601 34.0893 85.1701 36.2973 87.5841 36.2973C88.7288 36.2973 89.6468 35.7573 90.1228 35.1333H90.1908V35.8653C90.1908 37.8213 89.2048 38.8653 87.6181 38.8653C86.3261 38.8653 85.5214 37.8813 85.1928 37.0533L83.3454 37.8693C83.8781 39.2253 85.2834 40.8813 87.6181 40.8813C90.1001 40.8813 92.1968 39.3333 92.1968 35.5653V26.3973H90.1908V27.2253ZM87.7654 34.2813C86.3034 34.2813 85.0794 32.9853 85.0794 31.2093C85.0794 29.4333 86.3034 28.1013 87.7654 28.1013C89.2274 28.1013 90.3381 29.4213 90.3381 31.2093C90.3381 32.9973 89.2048 34.2813 87.7654 34.2813ZM115.396 20.9853H110.33V35.9853H112.449V30.2973H115.407C117.753 30.2973 120.054 28.4973 120.054 25.6413C120.054 22.7853 117.753 20.9853 115.407 20.9853H115.396ZM115.453 28.2213H112.449V23.0733H115.453C117.039 23.0733 117.935 24.4653 117.935 25.6413C117.935 26.8173 117.039 28.2093 115.453 28.2093V28.2213ZM128.52 26.0613C126.99 26.0613 125.403 26.7813 124.746 28.3533L126.627 29.1813C127.024 28.3533 127.772 28.0773 128.554 28.0773C129.642 28.0773 130.764 28.7733 130.775 30.0093V30.1653C130.39 29.9373 129.574 29.5893 128.565 29.5893C126.537 29.5893 124.485 30.7653 124.485 32.9613C124.485 34.9653 126.14 36.2613 127.999 36.2613C129.415 36.2613 130.209 35.5893 130.696 34.7973H130.764V35.9493H132.804V30.2013C132.804 27.5373 130.923 26.0493 128.497 26.0493L128.52 26.0613ZM128.259 34.2813C127.568 34.2813 126.605 33.9093 126.605 33.0093C126.605 31.8573 127.806 31.4133 128.849 31.4133C129.778 31.4133 130.22 31.6293 130.775 31.9173C130.617 33.3093 129.483 34.2933 128.259 34.2933V34.2813ZM140.25 26.3853L137.825 32.8893H137.757L135.241 26.3853H132.963L136.737 35.4813L134.583 40.5333H136.793L142.607 26.3853H140.261H140.25ZM121.199 35.9853H123.318V20.9853H121.199V35.9853Z" fill="white"/>
<path d="M23.4821 23.305L11.4121 36.865C11.7861 38.341 13.0554 39.421 14.5628 39.421C15.1634 39.421 15.7301 39.253 16.2174 38.941L16.2514 38.917L29.8288 30.625L23.4708 23.293L23.4821 23.305Z" fill="#EA4335"/>
<path d="M35.6889 20.9987H35.6776L29.8183 17.3867L23.2109 23.6147L29.8409 30.6347L35.6776 27.0707C36.6976 26.4827 37.3889 25.3427 37.3889 24.0347C37.3889 22.7267 36.7089 21.5867 35.6889 21.0107V20.9987Z" fill="#FBBC04"/>
<path d="M11.4122 11.1328C11.3442 11.4208 11.2988 11.7088 11.2988 12.0208V35.9848C11.2988 36.2968 11.3328 36.5848 11.4122 36.8728L23.8902 23.6608L11.4122 11.1328Z" fill="#4285F4"/>
<path d="M23.5747 23.9984L29.8194 17.3864L16.2534 9.05841C15.7661 8.74641 15.1881 8.56641 14.5647 8.56641C13.0574 8.56641 11.7881 9.65841 11.4141 11.1224L23.5747 23.9864V23.9984Z" fill="#34A853"/>
</svg>
