<svg width="24" height="24" viewBox="0 0 24 24" fill="none" xmlns="http://www.w3.org/2000/svg">
<path fill-rule="evenodd" clip-rule="evenodd" d="M12.2867 0.417969C9.16608 0.417969 8.77542 0.431095 7.54984 0.487461C6.32655 0.543827 5.49086 0.73995 4.7601 1.02641C3.99412 1.31674 3.29936 1.7723 2.72487 2.36221C2.14059 2.94064 1.68838 3.64048 1.39971 4.413C1.11706 5.14962 0.921731 5.9928 0.865814 7.2259C0.810663 8.46055 0.796875 8.85356 0.796875 12C0.796875 15.1465 0.809897 15.5395 0.865814 16.7749C0.921731 18.008 1.11629 18.8504 1.40047 19.587C1.68849 20.3592 2.14042 21.0595 2.72564 21.6386C3.29948 22.2276 3.99374 22.6834 4.7601 22.9744C5.49086 23.2601 6.32655 23.4562 7.54984 23.5126C8.77542 23.5689 9.16608 23.5821 12.2867 23.5821C15.4074 23.5821 15.798 23.5689 17.0236 23.5126C18.2469 23.4562 19.0826 23.2601 19.8133 22.9736C20.5793 22.6833 21.2741 22.2277 21.8486 21.6378C22.4328 21.0594 22.8851 20.3596 23.1737 19.587C23.4571 18.8504 23.6517 18.008 23.7076 16.7749C23.7635 15.5395 23.7766 15.1457 23.7766 12C23.7766 8.85433 23.7635 8.46055 23.7076 7.22513C23.6517 5.99202 23.4571 5.14962 23.173 4.413C22.8845 3.64015 22.4323 2.94002 21.8478 2.36144C21.274 1.77247 20.5797 1.31663 19.8133 1.02564C19.0826 0.740722 18.2461 0.543827 17.0228 0.487461C15.798 0.431867 15.4081 0.417969 12.2867 0.417969ZM12.2867 2.50505C15.3545 2.50505 15.7184 2.51664 16.9301 2.57223C18.05 2.62396 18.6582 2.81159 19.0634 2.97142C19.5996 3.18067 19.9826 3.43239 20.3848 3.83699C20.7869 4.24236 21.0359 4.62843 21.2434 5.16893C21.4012 5.57739 21.5881 6.19046 21.6395 7.31933C21.6946 8.54085 21.7061 8.90761 21.7061 12C21.7061 15.0924 21.6946 15.4592 21.6395 16.6807C21.5881 17.8096 21.402 18.4227 21.2434 18.8311C21.0595 19.3342 20.7661 19.7893 20.3848 20.163C20.0141 20.5476 19.5626 20.8433 19.0634 21.0286C18.6582 21.1877 18.05 21.3761 16.9301 21.4278C15.7184 21.4834 15.3553 21.495 12.2867 21.495C9.21816 21.495 8.85508 21.4834 7.64329 21.4278C6.52341 21.3761 5.91522 21.1884 5.51001 21.0286C5.01093 20.8433 4.55942 20.5475 4.18868 20.163C3.80735 19.7893 3.51394 19.3342 3.33 18.8311C3.17221 18.4227 2.98531 17.8096 2.93399 16.6807C2.87883 15.4592 2.86734 15.0924 2.86734 12C2.86734 8.90761 2.87883 8.54085 2.93399 7.31933C2.98531 6.19046 3.17144 5.57739 3.33 5.16893C3.53759 4.62843 3.7873 4.24236 4.18868 3.83699C4.55937 3.4525 5.0109 3.15672 5.51001 2.97142C5.91522 2.81236 6.52341 2.62396 7.64329 2.57223C8.85508 2.51664 9.21893 2.50505 12.2867 2.50505Z" fill="#191919"/>
<path fill-rule="evenodd" clip-rule="evenodd" d="M12.2886 15.8643C11.7851 15.8643 11.2866 15.7643 10.8215 15.5701C10.3563 15.3759 9.9337 15.0912 9.5777 14.7324C9.2217 14.3735 8.93931 13.9475 8.74664 13.4786C8.55398 13.0098 8.45481 12.5072 8.45481 11.9997C8.45481 11.4922 8.55398 10.9897 8.74664 10.5208C8.93931 10.052 9.2217 9.62595 9.5777 9.2671C9.9337 8.90824 10.3563 8.62358 10.8215 8.42937C11.2866 8.23516 11.7851 8.1352 12.2886 8.1352C13.3054 8.1352 14.2805 8.54235 14.9995 9.2671C15.7185 9.99184 16.1224 10.9748 16.1224 11.9997C16.1224 13.0247 15.7185 14.0076 14.9995 14.7324C14.2805 15.4571 13.3054 15.8643 12.2886 15.8643ZM12.2886 6.04657C10.7223 6.04657 9.22012 6.67378 8.11257 7.79021C7.00503 8.90665 6.38281 10.4209 6.38281 11.9997C6.38281 13.5786 7.00503 15.0928 8.11257 16.2093C9.22012 17.3257 10.7223 17.9529 12.2886 17.9529C13.8549 17.9529 15.3571 17.3257 16.4646 16.2093C17.5722 15.0928 18.1944 13.5786 18.1944 11.9997C18.1944 10.4209 17.5722 8.90665 16.4646 7.79021C15.3571 6.67378 13.8549 6.04657 12.2886 6.04657ZM19.9125 5.93847C19.9125 6.31169 19.7654 6.66962 19.5036 6.93352C19.2418 7.19743 18.8867 7.34569 18.5165 7.34569C18.1462 7.34569 17.7911 7.19743 17.5293 6.93352C17.2675 6.66962 17.1205 6.31169 17.1205 5.93847C17.1205 5.56525 17.2675 5.20732 17.5293 4.94342C17.7911 4.67951 18.1462 4.53125 18.5165 4.53125C18.8867 4.53125 19.2418 4.67951 19.5036 4.94342C19.7654 5.20732 19.9125 5.56525 19.9125 5.93847Z" fill="#191919"/>
</svg>
