<svg width="30" height="28" viewBox="0 0 30 28" fill="none" xmlns="http://www.w3.org/2000/svg">
<path d="M29.4016 14.2394C29.4016 12.3921 27.9843 10.8929 26.2381 10.8929C25.3777 10.8929 24.6184 11.241 24.0617 11.8299C21.9105 10.1969 18.9242 9.126 15.6343 8.99214L17.0768 1.84411L21.7587 2.8882C21.8093 4.14647 22.7963 5.16379 24.0111 5.16379C25.2511 5.16379 26.2634 4.09293 26.2634 2.78112C26.2634 1.46931 25.2511 0.398438 24.0111 0.398438C23.1253 0.398438 22.3661 0.93387 22.0118 1.73702L16.7731 0.559069C16.6212 0.532297 16.4694 0.559068 16.3429 0.639383C16.2163 0.719698 16.1404 0.853556 16.0898 1.01419L14.4954 8.99214C11.1295 9.09923 8.11791 10.1433 5.94146 11.8299C5.38469 11.2677 4.60016 10.8929 3.76501 10.8929C2.01879 10.8929 0.601562 12.3921 0.601562 14.2394C0.601562 15.6047 1.36079 16.7559 2.47432 17.2913C2.42371 17.6126 2.3984 17.9606 2.3984 18.3087C2.3984 23.4488 8.04199 27.5984 15.0269 27.5984C22.0118 27.5984 27.6553 23.4488 27.6553 18.3087C27.6553 17.9606 27.63 17.6394 27.5794 17.3181C28.617 16.7827 29.4016 15.6047 29.4016 14.2394ZM7.7636 16.6221C7.7636 15.3102 8.77591 14.2394 10.016 14.2394C11.256 14.2394 12.2683 15.3102 12.2683 16.6221C12.2683 17.9339 11.256 19.0047 10.016 19.0047C8.77591 19.0047 7.7636 17.9339 7.7636 16.6221ZM20.3415 22.9134C18.7977 24.5465 15.862 24.6536 15.0016 24.6536C14.1411 24.6536 11.1801 24.5197 9.66167 22.9134C9.4339 22.6725 9.4339 22.2709 9.66167 22.0299C9.88944 21.789 10.269 21.789 10.4968 22.0299C11.4585 23.0473 13.5337 23.4221 15.0269 23.4221C16.52 23.4221 18.5699 23.0473 19.5569 22.0299C19.7847 21.789 20.1643 21.789 20.3921 22.0299C20.5692 22.2976 20.5692 22.6725 20.3415 22.9134ZM19.9365 19.0047C18.6965 19.0047 17.6842 17.9339 17.6842 16.6221C17.6842 15.3102 18.6965 14.2394 19.9365 14.2394C21.1766 14.2394 22.1889 15.3102 22.1889 16.6221C22.1889 17.9339 21.1766 19.0047 19.9365 19.0047Z" fill="black"/>
</svg>
