<svg width="140" height="48" viewBox="0 0 140 48" fill="none" xmlns="http://www.w3.org/2000/svg">
<path d="M8.98976 47.9975C8.62802 47.9975 8.27502 47.9926 7.91613 47.9841C7.17264 47.9738 6.43089 47.9054 5.69696 47.7794C5.01261 47.6548 4.34966 47.4231 3.72997 47.0919C3.11597 46.7634 2.55595 46.3327 2.07136 45.8162C1.57976 45.3058 1.17049 44.7139 0.859746 44.0638C0.545583 43.4095 0.328164 42.7082 0.215061 41.9843C0.0929205 41.2065 0.0268374 40.4199 0.0173816 39.6315C0.00985434 39.3669 0 38.4857 0 38.4857V9.49828C0 9.49828 0.0104955 8.63068 0.017441 8.37578C0.0264949 7.5886 0.0921938 6.80329 0.213969 6.02664C0.32728 5.30074 0.544868 4.59741 0.8592 3.94098C1.1688 3.29137 1.5758 2.69898 2.06444 2.18678C2.55253 1.66971 3.11434 1.23677 3.72939 0.903746C4.34765 0.573578 5.00935 0.34349 5.69232 0.22119C6.42866 0.0939071 7.17298 0.0250918 7.91905 0.0153216L8.99034 0H131.004L132.088 0.0159364C132.827 0.0252212 133.565 0.0934226 134.294 0.21996C134.984 0.343794 135.653 0.575487 136.278 0.907422C137.51 1.57857 138.513 2.64038 139.145 3.94404C139.455 4.59594 139.669 5.29354 139.781 6.01316C139.904 6.79618 139.973 7.58767 139.987 8.3813C139.991 8.73667 139.991 9.11839 139.991 9.49828C140 9.96885 140 10.4167 140 10.8683V37.1304C140 37.5862 140 38.0311 139.991 38.4796C139.991 38.8876 139.991 39.2614 139.986 39.6462C139.972 40.4257 139.904 41.203 139.783 41.972C139.672 42.7012 139.456 43.4079 139.142 44.0676C138.829 44.7106 138.422 45.2974 137.936 45.8064C137.451 46.3257 136.89 46.7589 136.275 47.0895C135.651 47.4233 134.984 47.6558 134.294 47.7794C133.56 47.9061 132.819 47.9745 132.075 47.9841C131.727 47.9926 131.363 47.9975 131.01 47.9975L129.723 48L8.98976 47.9975Z" fill="black"/>
<path fill-rule="evenodd" clip-rule="evenodd" d="M35.9149 8.45703C32.222 8.45703 28.6615 9.93006 25.9554 12.5751C23.229 15.2201 21.5606 18.8543 21.2656 22.7358L29.1396 26.1764C29.8314 25.6711 30.6452 25.413 31.4794 25.413H31.7134L35.2129 20.0478V19.9725C35.2129 18.8113 35.5486 17.6823 36.159 16.7254C36.7694 15.7684 37.6341 15.0158 38.6514 14.575C39.6687 14.1341 40.7776 14.0266 41.8559 14.2524C42.9343 14.4782 43.9109 15.0373 44.6841 15.8652C45.4572 16.6824 45.9862 17.7253 46.1998 18.865C46.4135 20.0047 46.3016 21.1767 45.8845 22.2519C45.4674 23.3164 44.7553 24.2303 43.8397 24.8754C42.9241 25.5206 41.8559 25.8646 40.7572 25.8646H40.6352L35.6504 29.6278V29.8321C35.6504 30.9288 35.274 31.9825 34.5822 32.789C33.8904 33.5954 32.9341 34.1115 31.9067 34.219C30.8792 34.3265 29.8517 34.0254 29.0175 33.3803C28.1833 32.7352 27.6136 31.7783 27.4102 30.7031L21.7845 28.2408C22.5271 31.0256 23.992 33.5308 26.0165 35.477C28.0307 37.4231 30.5231 38.7456 33.219 39.2724C35.9047 39.8101 38.6819 39.5413 41.2252 38.4983C43.7787 37.4554 45.9964 35.6813 47.6444 33.3803C49.2925 31.0794 50.2996 28.3268 50.5539 25.456C50.8083 22.5745 50.2996 19.6822 49.0788 17.1017C47.8581 14.5104 45.9862 12.3385 43.6566 10.8225C41.3371 9.28494 38.6514 8.47854 35.9149 8.47854V8.45703ZM30.4723 32.0256L28.6615 31.2407C28.926 31.8213 29.3431 32.3051 29.8517 32.6277C30.3705 32.961 30.9707 33.1223 31.571 33.1008C32.1712 33.0793 32.7612 32.875 33.2597 32.5094C33.7582 32.1438 34.1346 31.6277 34.3686 31.0364C34.5924 30.445 34.6534 29.7891 34.5313 29.1655C34.4092 28.5419 34.1244 27.9613 33.6971 27.4989C33.2699 27.0474 32.7307 26.7248 32.1406 26.585C31.5506 26.4452 30.9301 26.499 30.3705 26.7248L32.2322 27.5419C32.7917 27.7892 33.2393 28.2623 33.4733 28.8645C33.7073 29.4558 33.7073 30.1332 33.4733 30.7246C33.2393 31.3159 32.7917 31.789 32.222 32.0363C31.6625 32.2836 31.0216 32.2836 30.4621 32.0363L30.4723 32.0256ZM43.8397 17.8221C44.2466 18.4672 44.4602 19.2198 44.4602 19.994C44.4602 21.0262 44.0737 22.0154 43.3819 22.7465C42.6901 23.4777 41.7542 23.8862 40.7776 23.8862C40.0451 23.8862 39.333 23.6605 38.7226 23.2304C38.1122 22.8003 37.6443 22.1874 37.3594 21.4778C37.0746 20.7681 37.0034 19.9832 37.1458 19.2198C37.2882 18.4672 37.6443 17.7683 38.1529 17.22C38.6718 16.6716 39.333 16.306 40.0451 16.1555C40.7572 16.005 41.4999 16.0802 42.1815 16.3813C42.8529 16.6824 43.4328 17.177 43.8397 17.8221ZM38.4683 18.3597C38.1631 18.8435 38.0003 19.4134 38.0003 19.9832H37.98C37.98 20.3596 38.0512 20.7466 38.1936 21.1015C38.3361 21.4563 38.5395 21.7788 38.7938 22.0584C39.0482 22.3272 39.3635 22.553 39.6992 22.6928C40.035 22.8433 40.4012 22.9186 40.7674 22.9078C41.3168 22.9078 41.8559 22.7358 42.3036 22.4132C42.7613 22.0906 43.1174 21.6283 43.3209 21.1015C43.5345 20.5639 43.5854 19.9725 43.4836 19.4026C43.3819 18.8328 43.1174 18.3167 42.7207 17.8973C42.3341 17.4888 41.8356 17.2092 41.2964 17.0909C40.7572 16.9727 40.1977 17.0372 39.6891 17.263C39.1804 17.4888 38.7532 17.8651 38.448 18.3382L38.4683 18.3597ZM66.2917 19.0908L65.2947 20.9187C64.5012 20.3488 63.5653 20.037 62.609 20.0263C61.5815 20.0263 60.9508 20.4671 60.9508 21.2735C60.9508 22.0799 61.7545 22.3917 63.0261 22.8433C63.2601 22.9293 63.5043 23.0153 63.7586 23.1121C65.5592 23.7895 66.5867 24.5744 66.5867 26.3162C66.5867 28.7032 64.8166 30.0364 62.2733 30.0364C60.9101 30.0364 59.5673 29.6709 58.377 28.9612L59.0891 26.9291C60.0352 27.4559 61.0831 27.7462 62.1411 27.757C63.4839 27.757 64.135 27.2301 64.135 26.456C64.135 25.6281 63.3008 25.3485 61.9274 24.8647C61.8155 24.8324 61.7036 24.7894 61.5917 24.7464C59.7911 24.112 58.55 23.2841 58.55 21.3488C58.55 19.1768 60.2082 17.9296 62.5683 17.9296C63.8908 17.8866 65.193 18.2952 66.2815 19.0693L66.2917 19.0908ZM73.9825 29.8429V20.2413H77.3396V18.1339H68.2958V20.2413H71.6529V29.8429H73.9825ZM82.2227 20.2413V22.8756H86.6582V24.983H82.2227V27.7247H87.3703V29.8321H79.9033V18.1339H87.3703V20.2413H82.2227ZM91.8159 29.8321L92.5484 27.5635H96.872L97.6248 29.8321H100.138L95.8648 18.1339H93.5352L89.3846 29.8321H91.8159ZM93.1791 25.6066L94.6949 20.9187L96.2412 25.6066H93.1893H93.1791ZM112.03 22.6498L108.998 29.4881H107.686L104.695 22.7143V29.8321H102.477V18.1339H104.695L108.418 26.5743L112.02 18.1339H114.258V29.8321H112.04V22.6605L112.03 22.6498ZM118.469 20.4993C118.642 20.2305 118.734 19.9187 118.734 19.5962C118.734 19.3811 118.703 19.1661 118.632 18.9726C118.561 18.7683 118.449 18.5962 118.307 18.4349C118.164 18.2844 117.991 18.1661 117.808 18.0801C117.615 18.0049 117.422 17.9619 117.218 17.9726C116.913 17.9726 116.618 18.0694 116.364 18.2414C116.109 18.4242 115.916 18.6715 115.794 18.9726C115.682 19.2736 115.641 19.5962 115.702 19.908C115.763 20.2198 115.906 20.5101 116.119 20.7359C116.333 20.9617 116.608 21.123 116.903 21.1767C117.198 21.2412 117.513 21.209 117.788 21.0907C118.073 20.9724 118.307 20.7574 118.48 20.4993H118.469ZM116.14 20.3488C115.997 20.1338 115.926 19.865 115.916 19.6069C115.916 19.4241 115.936 19.2521 115.997 19.0801C116.058 18.908 116.15 18.7575 116.272 18.6285C116.394 18.4995 116.537 18.4027 116.689 18.3382C116.852 18.2737 117.015 18.2414 117.188 18.2414C117.442 18.2414 117.686 18.3167 117.9 18.4672C118.113 18.6177 118.276 18.822 118.368 19.0693C118.469 19.3166 118.49 19.5854 118.439 19.8435C118.388 20.1015 118.266 20.3488 118.093 20.5316C117.92 20.7251 117.686 20.8542 117.442 20.9079C117.198 20.9617 116.943 20.9402 116.709 20.8327C116.475 20.7251 116.272 20.5639 116.13 20.3381L116.14 20.3488ZM117.747 19.2306C117.747 18.9941 117.615 18.7683 117.218 18.7683H116.679V20.3811H116.923V19.7575H117.228L117.523 20.3811H117.829L117.472 19.6822C117.554 19.6392 117.625 19.5854 117.676 19.4994C117.727 19.4241 117.747 19.3274 117.747 19.2306ZM117.198 19.5209H116.933V19.0156H117.198C117.401 19.0156 117.472 19.1123 117.472 19.2629C117.472 19.2951 117.472 19.3381 117.452 19.3704C117.442 19.4026 117.422 19.4349 117.391 19.4564C117.361 19.4779 117.33 19.4994 117.3 19.5102C117.269 19.5209 117.228 19.5209 117.198 19.5209Z" fill="white"/>
</svg>
