<svg width="23" height="26" viewBox="0 0 23 26" fill="none" xmlns="http://www.w3.org/2000/svg">
<path d="M19.4943 5.4497C18.1369 4.56464 17.1571 3.14854 16.8515 1.49774C16.7855 1.14108 16.7492 0.774008 16.7492 0.398438H12.4168L12.4099 17.7612C12.337 19.7055 10.7368 21.266 8.775 21.266C8.16527 21.266 7.59115 21.1136 7.08566 20.8476C5.92647 20.2376 5.13318 19.0225 5.13318 17.6243C5.13318 15.6161 6.76698 13.9823 8.775 13.9823C9.14984 13.9823 9.50942 14.0441 9.84956 14.1507V9.72778C9.49756 9.67985 9.13991 9.64989 8.775 9.64989C4.37792 9.64989 0.800781 13.2272 0.800781 17.6243C0.800781 20.3221 2.14867 22.7095 4.20503 24.1532C5.50029 25.0625 7.07581 25.5984 8.775 25.5984C13.1721 25.5984 16.7492 22.0213 16.7492 17.6243V8.81987C18.4484 10.0395 20.5302 10.7582 22.7767 10.7582V6.42577C21.5666 6.42577 20.4395 6.06602 19.4943 5.4497Z" fill="#191919"/>
</svg>
