<svg width="28" height="24" viewBox="0 0 28 24" fill="none" xmlns="http://www.w3.org/2000/svg">
<path d="M24.5658 6.37833C24.5766 6.62473 24.5766 6.85993 24.5766 7.10633C24.5874 14.5768 19.0988 23.2008 9.06169 23.2008C6.10133 23.2008 3.19499 22.316 0.699219 20.6584C1.13139 20.7144 1.56356 20.7368 1.99573 20.7368C4.44828 20.7368 6.83602 19.8856 8.76997 18.3064C6.43626 18.2616 4.38346 16.6824 3.67038 14.3752C4.4915 14.5432 5.33423 14.5096 6.13374 14.2744C3.59475 13.7592 1.76884 11.4407 1.75803 8.74153C1.75803 8.71913 1.75803 8.69673 1.75803 8.67433C2.51433 9.11114 3.36786 9.35754 4.2322 9.37994C1.84447 7.72233 1.09898 4.41832 2.54674 1.83111C5.32343 5.37032 9.40742 7.50953 13.7939 7.74473C13.351 5.78473 13.956 3.72392 15.3714 2.33511C17.5646 0.195907 21.022 0.307908 23.0964 2.58152C24.3173 2.33511 25.4949 1.86471 26.5645 1.20391C26.154 2.51431 25.3004 3.62312 24.166 4.32872C25.2464 4.19432 26.3052 3.89192 27.2992 3.44392C26.5645 4.58632 25.6354 5.57192 24.5658 6.37833Z" fill="black"/>
</svg>
