<svg width="28" height="19" viewBox="0 0 28 19" fill="none" xmlns="http://www.w3.org/2000/svg">
<path fill-rule="evenodd" clip-rule="evenodd" d="M24.9089 0.897654C26.113 1.19765 27.0655 2.08099 27.389 3.19765C27.982 5.23099 28 9.44765 28 9.44765C28 9.44765 28 13.681 27.4069 15.6977C27.0834 16.8143 26.1309 17.6977 24.9268 17.9977C22.7522 18.5477 14 18.5477 14 18.5477C14 18.5477 5.24775 18.5477 3.07317 17.9977C1.86906 17.6977 0.916561 16.8143 0.593069 15.6977C0 13.6643 0 9.44765 0 9.44765C0 9.44765 0 5.23099 0.575096 3.21432C0.898588 2.09766 1.85109 1.21432 3.0552 0.914327C5.22978 0.364319 13.982 0.347656 13.982 0.347656C13.982 0.347656 22.7343 0.347656 24.9089 0.897654ZM18.457 9.44766L11.1964 13.3477V5.54766L18.457 9.44766Z" fill="#191919"/>
</svg>
