<?xml version="1.0" standalone="no"?>
<!DOCTYPE svg PUBLIC "-//W3C//DTD SVG 20010904//EN"
 "http://www.w3.org/TR/2001/REC-SVG-20010904/DTD/svg10.dtd">
<svg version="1.0" xmlns="http://www.w3.org/2000/svg"
 width="200.000000pt" height="200.000000pt" viewBox="0 0 200.000000 200.000000"
 preserveAspectRatio="xMidYMid meet">
<metadata>
Created by potrace 1.11, written by Peter Selinger 2001-2013
</metadata>
<g transform="translate(0.000000,200.000000) scale(0.100000,-0.100000)"
fill="#000000" stroke="none">
<path d="M1352 1508 c-29 -21 -32 -26 -26 -58 11 -59 10 -63 -16 -71 -14 -4
-131 -39 -261 -78 -130 -39 -243 -71 -251 -71 -8 0 -20 25 -31 68 -22 86 -22
92 7 92 34 0 56 10 56 25 0 19 -15 21 -119 21 -63 -1 -96 -5 -98 -13 -6 -18
35 -55 55 -49 28 9 37 -5 62 -92 l23 -83 -25 -27 c-14 -15 -52 -56 -84 -92
-131 -143 -187 -199 -196 -194 -16 10 -58 -26 -58 -50 0 -41 66 -77 85 -46 3
6 11 10 16 10 17 0 -1 -21 -27 -30 -47 -18 -96 27 -85 80 5 24 32 50 53 50 26
0 55 29 39 39 -10 7 -22 7 -63 2 -22 -3 -68 -57 -74 -86 -20 -109 117 -176
191 -92 29 33 32 34 90 29 33 -2 63 -7 67 -11 14 -12 -39 -107 -78 -139 -106
-88 -253 -77 -346 26 -108 120 -68 315 80 388 51 26 175 26 214 0 27 -18 28
-18 52 11 26 30 20 53 -13 53 -9 0 -27 7 -39 16 -13 9 -34 14 -48 11 -13 -2
-27 0 -30 5 -8 13 -114 -1 -139 -18 -11 -8 -25 -14 -32 -14 -16 0 -102 -62
-102 -74 -1 -6 -10 -20 -22 -32 -11 -12 -21 -28 -23 -35 -1 -8 -8 -25 -16 -39
-21 -39 -20 -171 1 -217 10 -21 18 -43 19 -50 0 -7 6 -16 13 -20 7 -4 21 -21
30 -36 10 -15 25 -31 34 -34 9 -4 25 -15 35 -25 10 -10 26 -18 36 -18 10 0 23
-5 29 -11 25 -25 191 -25 216 0 6 6 19 11 29 11 10 0 26 8 36 17 9 10 30 26
45 36 15 9 27 24 27 31 0 7 9 20 20 27 11 8 22 24 24 35 3 12 9 30 14 40 6 11
13 27 16 36 7 22 41 13 54 -16 11 -26 -10 -76 -32 -76 -12 0 -26 -20 -26 -36
0 -2 23 -4 51 -4 45 0 50 2 44 18 -8 20 -8 21 -6 45 1 13 10 17 39 17 53 0 86
35 84 89 -2 35 4 43 54 89 30 28 110 102 177 165 67 63 137 129 156 146 23 21
37 29 44 22 11 -11 18 -101 7 -101 -3 0 -22 -13 -40 -30 -18 -16 -37 -30 -42
-30 -4 0 -8 -5 -8 -12 0 -6 -10 -22 -22 -35 -12 -13 -28 -40 -36 -61 -19 -48
-23 -184 -7 -215 6 -13 15 -35 18 -49 15 -59 193 -194 229 -172 5 3 22 0 39
-6 23 -10 32 -10 44 0 8 6 22 9 32 6 10 -3 31 1 47 9 15 8 35 15 43 15 8 0 25
12 38 26 14 15 25 23 25 19 0 -4 9 0 20 10 11 10 20 23 20 28 0 5 12 20 26 33
14 13 22 29 19 35 -4 5 1 19 10 29 26 28 26 191 1 219 -10 11 -15 24 -12 30 4
5 -5 22 -19 37 -14 15 -25 33 -25 40 0 7 -9 16 -20 19 -12 4 -29 16 -40 28
-24 25 -84 50 -127 51 -18 1 -33 4 -33 9 0 9 -42 9 -57 -1 -8 -5 -10 -17 -4
-37 7 -27 13 -31 60 -37 141 -21 231 -131 218 -268 -12 -137 -122 -233 -259
-225 -129 7 -227 107 -233 239 -2 50 2 69 29 120 19 36 45 70 66 84 l35 23 21
-63 c21 -62 21 -63 3 -94 -73 -121 94 -237 181 -126 36 44 21 126 -27 158 -36
23 -40 9 -13 -41 28 -51 21 -91 -19 -111 -53 -27 -118 28 -93 77 12 24 12 24
8 -5 -7 -52 62 -89 94 -51 17 20 16 66 -1 79 -8 6 -34 70 -58 141 -24 72 -55
147 -68 167 -14 20 -26 49 -28 65 -1 15 -18 72 -38 125 l-35 97 25 19 c15 11
23 24 19 30 -11 18 -27 15 -64 -10z m-40 -216 c4 -13 -21 -47 -84 -113 -49
-52 -135 -142 -190 -201 -99 -106 -124 -122 -147 -95 -12 15 -87 285 -80 291
6 6 462 135 480 135 9 1 19 -7 21 -17z m-534 -207 c6 -22 21 -81 35 -131 l25
-91 -22 -27 c-28 -35 -45 -22 -51 39 -3 26 -10 54 -15 60 -6 7 -13 23 -15 34
-2 12 -16 36 -30 53 -25 29 -25 31 -8 52 64 77 66 77 81 11z m-98 -175 c14
-50 13 -90 -2 -85 -7 2 -38 6 -67 10 -30 3 -56 7 -57 8 -1 1 -4 16 -8 32 -5
25 1 38 37 78 l42 48 23 -28 c12 -15 27 -44 32 -63z"/>
<path d="M895 953 c2 -10 4 -20 6 -23 1 -3 2 -14 3 -24 2 -29 21 -30 36 -1 7
14 21 25 30 25 9 0 16 9 17 20 2 17 -4 20 -47 20 -41 0 -48 -3 -45 -17z"/>
</g>
</svg>
